#N canvas 878 146 937 831 10;
#X msg 37 286 disconnect;
#X obj 353 622 netsend -u;
#X obj 56 39 vsl 15 80 0 1 0 0 empty empty empty 0 -9 0 10 -262144
-1 -1 7900 1;
#X obj 81 39 vsl 15 80 0 1 0 0 empty empty empty 0 -9 0 10 -262144
-1 -1 0 1;
#X msg 35 241 connect localhost 12346;
#X obj 517 617 netreceive -u 12345;
#X obj 68 327 pack f f, f 12;
#X msg 71 470 send inputs 1 0;
#X obj 230 43 vsl 15 80 0 1 0 0 empty empty empty 0 -9 0 10 -262144
-1 -1 7799 1;
#X obj 669 38 vsl 15 80 0 1 0 0 empty empty empty 0 -9 0 10 -262144
-1 -1 7900 1;
#X text 60 11 input;
#X text 182 70 output;
#X text 564 22 desired output;
#X msg 599 385 send desiredOutputs 1;
#X msg 699 204 set send desiredOutputs \$1;
#X obj 486 45 tgl 15 0 empty empty learning 17 7 0 10 -262144 -1 -1
0 1;
#X msg 68 344 set send inputs \$1 \$2;
#X obj 10 424 t b b, f 6;
#X obj 667 128 t b f;
#N canvas 127 187 378 455 xor_training 0;
#X obj 34 378 outlet;
#X text 61 396 inputs;
#X obj 89 378 outlet;
#X obj 199 378 outlet;
#X text 171 397 desired output;
#X obj 252 36 inlet;
#X text 259 15 bang;
#X msg 41 147 0;
#X msg 72 147 0;
#X msg 105 147 0;
#X obj 56 123 t b b b;
#X msg 81 207 0;
#X obj 96 183 t b b b;
#X msg 152 257 0;
#X obj 136 233 t b b b;
#X msg 225 317 0;
#X obj 176 293 t b b b;
#X msg 112 207 1;
#X msg 145 207 1;
#X msg 121 257 1;
#X msg 185 257 1;
#X msg 161 317 1;
#X msg 192 317 1;
#X obj 253 56 i;
#X obj 252 79 + 1;
#X obj 251 100 mod 4;
#X obj 250 121 sel 3 2 1 0;
#X connect 5 0 23 0;
#X connect 7 0 0 0;
#X connect 8 0 2 0;
#X connect 9 0 3 0;
#X connect 10 0 7 0;
#X connect 10 1 8 0;
#X connect 10 2 9 0;
#X connect 11 0 0 0;
#X connect 12 0 11 0;
#X connect 12 1 17 0;
#X connect 12 2 18 0;
#X connect 13 0 2 0;
#X connect 14 0 19 0;
#X connect 14 1 13 0;
#X connect 14 2 20 0;
#X connect 15 0 3 0;
#X connect 16 0 21 0;
#X connect 16 1 22 0;
#X connect 16 2 15 0;
#X connect 17 0 2 0;
#X connect 18 0 3 0;
#X connect 19 0 0 0;
#X connect 20 0 3 0;
#X connect 21 0 0 0;
#X connect 22 0 2 0;
#X connect 23 0 24 0;
#X connect 24 0 23 1;
#X connect 24 0 25 0;
#X connect 25 0 26 0;
#X connect 26 0 10 0;
#X connect 26 1 12 0;
#X connect 26 2 14 0;
#X connect 26 3 16 0;
#X restore 342 384 pd xor_training;
#X obj 480 69 bng 15 250 50 0 empty empty empty 17 7 0 10 -262144 -1
-1;
#X obj 116 308 t b f;
#X obj 577 355 t b b;
#X obj 314 351 t b b;
#X obj 458 304 spigot;
#X obj 361 276 del 1;
#X obj 359 296 spigot;
#X obj 409 113 -;
#X obj 304 43 vsl 15 80 0 1 0 0 empty empty empty 0 -9 0 10 -262144
-1 -1 101 1;
#X text 355 86 error;
#X obj 409 132 abs;
#X text 503 68 kickstart;
#X obj 320 42 vsl 15 80 0 1 0 0 empty empty empty 0 -9 0 10 -262144
-1 -1 101 1;
#X obj 366 59 line;
#X msg 367 38 \$1 300;
#X floatatom 359 100 5 0 0 0 - - -, f 5;
#X obj 12 366 bng 15 250 50 0 empty empty empty 17 7 0 10 -262144 -1
-1;
#X connect 0 0 1 0;
#X connect 2 0 6 0;
#X connect 3 0 21 0;
#X connect 4 0 1 0;
#X connect 5 0 8 0;
#X connect 6 0 16 0;
#X connect 7 0 1 0;
#X connect 8 0 25 0;
#X connect 8 0 27 0;
#X connect 9 0 18 0;
#X connect 9 0 27 1;
#X connect 13 0 1 0;
#X connect 14 0 13 0;
#X connect 15 0 24 1;
#X connect 15 0 26 1;
#X connect 16 0 7 0;
#X connect 17 0 7 0;
#X connect 17 1 7 0;
#X connect 18 0 22 0;
#X connect 18 1 14 0;
#X connect 19 0 2 0;
#X connect 19 1 3 0;
#X connect 19 2 24 0;
#X connect 20 0 23 0;
#X connect 20 0 4 0;
#X connect 21 0 6 0;
#X connect 21 1 6 1;
#X connect 22 0 13 0;
#X connect 22 1 13 0;
#X connect 23 0 17 0;
#X connect 23 1 19 0;
#X connect 24 0 9 0;
#X connect 25 0 26 0;
#X connect 26 0 23 0;
#X connect 27 0 30 0;
#X connect 28 0 34 0;
#X connect 30 0 28 0;
#X connect 32 0 35 0;
#X connect 33 0 32 0;
#X connect 34 0 33 0;
#X connect 36 0 17 0;
